<?xml version="1.0" encoding="UTF-8"?>
<svg width="778px" height="778px" viewBox="0 0 778 778" version="1.1" xmlns="http://www.w3.org/2000/svg" xmlns:xlink="http://www.w3.org/1999/xlink">
    <title>Group 2@3x</title>
    <defs>
        <path d="M187.16362,-7.56163425e-15 L288.83638,7.56163425e-15 C353.917248,-4.39352726e-15 377.517144,6.77626961 401.309736,19.5006874 C425.102329,32.2251051 443.774895,50.897671 456.499313,74.6902636 C469.22373,98.4828562 476,122.082752 476,187.16362 L476,288.83638 C476,353.917248 469.22373,377.517144 456.499313,401.309736 C443.774895,425.102329 425.102329,443.774895 401.309736,456.499313 C377.517144,469.22373 353.917248,476 288.83638,476 L187.16362,476 C122.082752,476 98.4828562,469.22373 74.6902636,456.499313 C50.897671,443.774895 32.2251051,425.102329 19.5006874,401.309736 C6.77626961,377.517144 2.92901817e-15,353.917248 -5.0410895e-15,288.83638 L5.0410895e-15,187.16362 C-2.92901817e-15,122.082752 6.77626961,98.4828562 19.5006874,74.6902636 C32.2251051,50.897671 50.897671,32.2251051 74.6902636,19.5006874 C98.4828562,6.77626961 122.082752,4.39352726e-15 187.16362,-7.56163425e-15 Z" id="path-1"></path>
        <filter x="-31.7%" y="-31.7%" width="163.4%" height="163.4%" filterUnits="objectBoundingBox" id="filter-2">
            <feGaussianBlur stdDeviation="50" in="SourceGraphic"></feGaussianBlur>
        </filter>
        <filter x="-38.0%" y="-38.0%" width="176.1%" height="176.1%" filterUnits="objectBoundingBox" id="filter-3">
            <feGaussianBlur stdDeviation="20" in="SourceAlpha" result="shadowBlurInner1"></feGaussianBlur>
            <feOffset dx="-20" dy="-20" in="shadowBlurInner1" result="shadowOffsetInner1"></feOffset>
            <feComposite in="shadowOffsetInner1" in2="SourceAlpha" operator="arithmetic" k2="-1" k3="1" result="shadowInnerInner1"></feComposite>
            <feColorMatrix values="0 0 0 0 0.0705882353   0 0 0 0 0   0 0 0 0 0.207843137  0 0 0 0.0520292696 0" type="matrix" in="shadowInnerInner1" result="shadowMatrixInner1"></feColorMatrix>
            <feGaussianBlur stdDeviation="5" in="SourceAlpha" result="shadowBlurInner2"></feGaussianBlur>
            <feOffset dx="-5" dy="-5" in="shadowBlurInner2" result="shadowOffsetInner2"></feOffset>
            <feComposite in="shadowOffsetInner2" in2="SourceAlpha" operator="arithmetic" k2="-1" k3="1" result="shadowInnerInner2"></feComposite>
            <feColorMatrix values="0 0 0 0 0.0705882353   0 0 0 0 0   0 0 0 0 0.207843137  0 0 0 0.0662022304 0" type="matrix" in="shadowInnerInner2" result="shadowMatrixInner2"></feColorMatrix>
            <feMerge>
                <feMergeNode in="shadowMatrixInner1"></feMergeNode>
                <feMergeNode in="shadowMatrixInner2"></feMergeNode>
            </feMerge>
        </filter>
        <filter x="-80.6%" y="-85.2%" width="261.3%" height="270.5%" filterUnits="objectBoundingBox" id="filter-4">
            <feGaussianBlur stdDeviation="50" in="SourceGraphic"></feGaussianBlur>
        </filter>
        <filter x="-80.6%" y="-85.2%" width="261.3%" height="270.5%" filterUnits="objectBoundingBox" id="filter-5">
            <feGaussianBlur stdDeviation="50" in="SourceGraphic"></feGaussianBlur>
        </filter>
        <filter x="-161.3%" y="-100.0%" width="422.6%" height="300.0%" filterUnits="objectBoundingBox" id="filter-6">
            <feGaussianBlur stdDeviation="50" in="SourceGraphic"></feGaussianBlur>
        </filter>
        <filter x="-61.0%" y="-211.3%" width="222.0%" height="522.5%" filterUnits="objectBoundingBox" id="filter-7">
            <feGaussianBlur stdDeviation="50" in="SourceGraphic"></feGaussianBlur>
        </filter>
        <path d="M187.16362,-7.56163425e-15 L342.83638,7.56163425e-15 C407.917248,-4.39352726e-15 431.517144,6.77626961 455.309736,19.5006874 C479.102329,32.2251051 497.774895,50.897671 510.499313,74.6902636 C523.22373,98.4828562 530,122.082752 530,187.16362 L530,342.83638 C530,407.917248 523.22373,431.517144 510.499313,455.309736 C497.774895,479.102329 479.102329,497.774895 455.309736,510.499313 C431.517144,523.22373 407.917248,530 342.83638,530 L187.16362,530 C122.082752,530 98.4828562,523.22373 74.6902636,510.499313 C50.897671,497.774895 32.2251051,479.102329 19.5006874,455.309736 C6.77626961,431.517144 2.92901817e-15,407.917248 -5.0410895e-15,342.83638 L5.0410895e-15,187.16362 C-2.92901817e-15,122.082752 6.77626961,98.4828562 19.5006874,74.6902636 C32.2251051,50.897671 50.897671,32.2251051 74.6902636,19.5006874 C98.4828562,6.77626961 122.082752,4.39352726e-15 187.16362,-7.56163425e-15 Z" id="path-8"></path>
        <filter x="-5.8%" y="-5.8%" width="111.7%" height="111.7%" filterUnits="objectBoundingBox" id="filter-9">
            <feGaussianBlur stdDeviation="20" in="SourceAlpha" result="shadowBlurInner1"></feGaussianBlur>
            <feOffset dx="-20" dy="-20" in="shadowBlurInner1" result="shadowOffsetInner1"></feOffset>
            <feComposite in="shadowOffsetInner1" in2="SourceAlpha" operator="arithmetic" k2="-1" k3="1" result="shadowInnerInner1"></feComposite>
            <feColorMatrix values="0 0 0 0 0.0705882353   0 0 0 0 0   0 0 0 0 0.207843137  0 0 0 0.0520292696 0" type="matrix" in="shadowInnerInner1" result="shadowMatrixInner1"></feColorMatrix>
            <feGaussianBlur stdDeviation="5" in="SourceAlpha" result="shadowBlurInner2"></feGaussianBlur>
            <feOffset dx="-5" dy="-5" in="shadowBlurInner2" result="shadowOffsetInner2"></feOffset>
            <feComposite in="shadowOffsetInner2" in2="SourceAlpha" operator="arithmetic" k2="-1" k3="1" result="shadowInnerInner2"></feComposite>
            <feColorMatrix values="0 0 0 0 0.0705882353   0 0 0 0 0   0 0 0 0 0.207843137  0 0 0 0.0662022304 0" type="matrix" in="shadowInnerInner2" result="shadowMatrixInner2"></feColorMatrix>
            <feMerge>
                <feMergeNode in="shadowMatrixInner1"></feMergeNode>
                <feMergeNode in="shadowMatrixInner2"></feMergeNode>
            </feMerge>
        </filter>
    </defs>
    <g id="Wave-Website-Sept-2021" stroke="none" stroke-width="1" fill="none" fill-rule="evenodd">
        <g id="WBrowser-Splash" transform="translate(-331.000000, -980.000000)">
            <g id="Group-2" transform="translate(454.500000, 1016.500000)">
                <g id="Group" opacity="0.800000012" transform="translate(27.500000, 114.500000)">
                    <g id="Rectangle" filter="url(#filter-2)">
                        <use fill-opacity="0.178918478" fill="#240562" fill-rule="evenodd" xlink:href="#path-1"></use>
                        <use fill="black" fill-opacity="1" filter="url(#filter-3)" xlink:href="#path-1"></use>
                        <use stroke-opacity="0.0853015393" stroke="#120035" stroke-width="2" xlink:href="#path-1"></use>
                    </g>
                    <path d="M191.000125,105 C210.439901,105 229.136702,106.517176 245.072601,109.388948 C261.772226,112.295312 274.905714,122.481767 280.202,136.627546 C285.114346,150.299423 285.261696,164.731618 280.642665,179.511802 C276.164758,192.953994 268.463837,209.60626 259.512865,225.200724 C246.898214,247.178672 235.909943,260.322686 228.917407,267.475481 C217.189621,279.288421 202.49063,280.908679 191.00566,281 C179.50962,280.908679 164.810629,279.288421 153.086302,267.478941 C146.090307,260.322686 135.101344,247.178672 122.486693,225.200724 C113.536413,209.606952 105.834801,192.953994 101.361044,179.524947 C96.7385544,164.731618 96.8852123,150.299423 101.7941,136.636539 C107.094536,122.481075 120.228024,112.29462 136.931109,109.388256 C152.863548,106.517176 171.559658,105 191.000125,105" id="Path" fill="#FFB700" filter="url(#filter-4)"></path>
                    <path d="M284.000125,105 C303.439901,105 322.136702,106.517176 338.072601,109.388948 C354.772226,112.295312 367.905714,122.481767 373.202,136.627546 C378.114346,150.299423 378.261696,164.731618 373.642665,179.511802 C369.164758,192.953994 361.463837,209.60626 352.512865,225.200724 C339.898214,247.178672 328.909943,260.322686 321.917407,267.475481 C310.189621,279.288421 295.49063,280.908679 284.00566,281 C272.50962,280.908679 257.810629,279.288421 246.086302,267.478941 C239.090307,260.322686 228.101344,247.178672 215.486693,225.200724 C206.536413,209.606952 198.834801,192.953994 194.361044,179.524947 C189.738554,164.731618 189.885212,150.299423 194.7941,136.636539 C200.094536,122.481075 213.228024,112.29462 229.931109,109.388256 C245.863548,106.517176 264.559658,105 284.000125,105" id="Path-Copy" fill="#00A2FF" filter="url(#filter-5)"></path>
                    <path d="M245.194131,109.25552 C261.841621,112.164958 274.934107,122.362186 280.213857,136.522926 C285.110867,150.209264 285.257757,164.656723 280.653147,179.452539 C276.18922,192.908948 268.512341,209.578826 259.589314,225.189784 C255.7876,231.841111 252.134067,237.684204 248.693974,242.79769 L246.83912,245.514979 C246.533637,245.955959 246.230015,246.391027 245.928305,246.820242 L244.141367,249.325775 L244.141367,249.325775 L242.402648,251.693682 C241.545736,252.843701 240.707788,253.943174 239.890129,254.993696 L238.282256,257.029942 C238.018916,257.358596 237.757929,257.681929 237.499343,258 L235.919667,256.027959 L235.919667,256.027959 L234.284656,253.926798 L234.284656,253.926798 L232.59667,251.693682 L232.59667,251.693682 L230.858068,249.325775 L230.858068,249.325775 L229.07121,246.820242 C224.84741,240.811229 220.248791,233.655109 215.410246,225.189784 C206.487909,209.579519 198.81034,192.908948 194.350551,179.465698 C189.742493,164.656723 189.888693,150.209264 194.782255,136.53193 C200.066143,122.361494 213.158629,112.164265 229.809567,109.254827 C232.307426,108.802817 234.873428,108.38433 237.499741,108 C240.131509,108.385189 242.696827,108.8036 245.194131,109.25552 Z" id="Path" fill="#FF0730" filter="url(#filter-6)"></path>
                    <path d="M335.61424,320.044505 C350.17032,320.044505 361,331.377066 361,346.522253 C361,348.199142 360.872611,349.814523 360.617498,351.368005 L360.402209,352.521505 L360.258111,353.209252 L326.597158,353.209252 L326.622169,353.258247 C328.194299,356.295695 331.090919,357.881641 335.20932,358.205207 L336.04926,358.253144 L336.869391,358.267812 C340.155608,358.267812 343.166422,357.117979 345.078864,355.2968 L345.500325,354.864828 L345.96677,354.349275 L358.9821,361.869012 L358.423587,362.647813 C353.522873,369.481448 346.113388,373 336.676291,373 C320.185219,373 309.06988,361.947951 309.06988,346.522253 C309.06988,331.321907 320.145341,320.044505 335.61424,320.044505 Z M228.68509,320.044505 C233.708748,320.044505 237.895377,321.353292 241.155979,323.841734 L241.840473,324.392981 L242.208989,324.72194 L242.208989,321.402694 L258.4156,321.402694 L258.4156,371.641811 L242.208989,371.641811 L242.208989,368.3191 L241.840473,368.651524 C238.936034,371.118094 235.22765,372.575465 230.78658,372.920247 L229.748744,372.980015 L228.68509,373 C215.412318,373 204.74758,361.295858 204.74758,346.522253 C204.74758,331.748647 215.412318,320.044505 228.68509,320.044505 Z M133.027378,302 L144.076235,346.972672 L156.412442,302 L170.277281,302 L182.610039,346.972672 L193.662345,302 L211.689723,302 L192.580207,371.641811 L173.695224,371.641811 L163.344862,333.955544 L152.994499,371.641811 L134.109516,371.641811 L115,302 L133.027378,302 Z M276.498356,321.402694 L285.915116,350.243412 L295.331876,321.402694 L313.221751,321.402694 L294.722077,371.641811 L277.108155,371.641811 L258.60848,321.402694 L276.498356,321.402694 Z M231.58159,335.552801 C225.250913,335.552801 220.954191,339.870147 220.954191,346.522253 C220.954191,353.174358 225.250913,357.491704 231.58159,357.491704 C237.912268,357.491704 242.208989,353.174358 242.208989,346.522253 C242.208989,339.870147 237.912268,335.552801 231.58159,335.552801 Z M335.51769,334.67968 C330.903239,334.67968 327.729629,336.679388 326.239398,340.455576 L326.183372,340.611361 L344.55891,340.611361 L344.468565,340.367946 C343.005748,336.773441 340.030487,334.894764 336.202024,334.697116 L335.51769,334.67968 Z" id="Combined-Shape" fill="#00A2FF" fill-rule="nonzero" filter="url(#filter-7)"></path>
                </g>
                <g id="Group">
                    <g id="Rectangle">
                        <use fill="#FFFFFF" fill-rule="evenodd" xlink:href="#path-8"></use>
                        <use fill="black" fill-opacity="1" filter="url(#filter-9)" xlink:href="#path-8"></use>
                        <use stroke-opacity="0.0853015393" stroke="#120035" stroke-width="2" xlink:href="#path-8"></use>
                    </g>
                    <g id="splashIcon" transform="translate(109.980000, 116.300000)">
                        <path d="M103.460316,-9.09494702e-13 C125.086581,-9.09494702e-13 145.886305,1.68771214 163.614594,4.88228263 C182.19251,8.11533264 196.803187,19.4467843 202.695173,35.1826029 C208.160036,50.3912519 208.323958,66.4456809 203.185402,82.887214 C198.203842,97.8403589 189.63676,116.364404 179.679028,133.711745 C165.645543,158.160099 153.421367,172.78155 145.642345,180.738347 C132.595476,193.879106 116.243215,195.681487 103.466473,195.783073 C90.6774164,195.681487 74.3251558,193.879106 61.2821347,180.742195 C53.4992652,172.78155 41.2743188,158.160099 27.2408346,133.711745 C17.2838717,116.365174 8.71601984,97.8403589 3.73907757,82.9018362 C-1.40332667,66.4456809 -1.24017347,50.3912519 4.22084127,35.1926075 C10.1174443,19.4460147 24.7281214,8.11456305 43.3098859,4.88151304 C61.0343265,1.68771214 81.8332815,-9.09494702e-13 103.460316,-9.09494702e-13" id="Path" fill="#FFB700"></path>
                        <path d="M206.59648,-9.09494702e-13 C228.222745,-9.09494702e-13 249.02247,1.68771214 266.750758,4.88228263 C285.328675,8.11533264 299.939352,19.4467843 305.831337,35.1826029 C311.2962,50.3912519 311.460123,66.4456809 306.321566,82.887214 C301.340007,97.8403589 292.772924,116.364404 282.815192,133.711745 C268.781708,158.160099 256.557531,172.78155 248.778509,180.738347 C235.73164,193.879106 219.37938,195.681487 206.602637,195.783073 C193.813581,195.681487 177.46132,193.879106 164.418299,180.742195 C156.635429,172.78155 144.410483,158.160099 130.376999,133.711745 C120.420036,116.365174 111.852184,97.8403589 106.875242,82.9018362 C101.732838,66.4456809 101.895991,50.3912519 107.357006,35.1926075 C113.253609,19.4460147 127.864286,8.11456305 146.44605,4.88151304 C164.170491,1.68771214 184.969446,-9.09494702e-13 206.59648,-9.09494702e-13" id="Path-Copy" fill="#00A2FF"></path>
                        <path d="M163.614594,4.88228263 C182.19251,8.11533264 196.803187,19.4467843 202.695173,35.1826029 C208.160036,50.3912519 208.323958,66.4456809 203.185402,82.887214 C198.203842,97.8403589 189.63676,116.364404 179.679028,133.711745 C175.436471,141.10289 171.359278,147.595901 167.520275,153.278154 L165.450334,156.297683 C165.109427,156.787712 164.770598,157.271172 164.433901,157.748128 L162.439752,160.532348 L162.439752,160.532348 L160.499413,163.163634 C159.543134,164.441568 158.608019,165.663334 157.695545,166.830703 L155.901224,169.093438 C155.607348,169.458648 155.316097,169.817945 155.027526,170.171394 L153.264672,167.980006 L153.264672,167.980006 L151.440067,165.645136 L151.440067,165.645136 L149.556343,163.163634 L149.556343,163.163634 L147.616135,160.532348 L147.616135,160.532348 L145.622074,157.748128 C140.908487,151.070741 135.776616,143.118657 130.376999,133.711745 C120.420036,116.365174 111.852184,97.8403589 106.875242,82.9018362 C101.732838,66.4456809 101.895991,50.3912519 107.357006,35.1926075 C113.253609,19.4460147 127.864286,8.11456305 146.44605,4.88151304 C149.233559,4.37922649 152.097112,3.91419095 155.02797,3.4871129 C157.964915,3.91514625 160.827705,4.38009579 163.614594,4.88228263 Z" id="Path" fill="#FF0730"></path>
                        <path d="M264.67968,239.45472 C280.889615,239.45472 292.94976,252.014594 292.94976,268.8 C292.94976,270.658496 292.807897,272.448822 292.523798,274.170546 L292.284048,275.44897 L292.123578,276.2112 L254.63808,276.2112 L254.665933,276.265501 C256.416687,279.631903 259.642421,281.389606 264.228753,281.748215 L265.164126,281.801344 L266.07744,281.8176 C269.737036,281.8176 273.089937,280.54324 275.219671,278.524828 L275.689018,278.046074 L276.208461,277.474687 L290.702587,285.80881 L290.080616,286.671954 C284.623085,294.24567 276.371736,298.14528 265.8624,298.14528 C247.497619,298.14528 235.11936,285.896298 235.11936,268.8 C235.11936,251.953461 247.45321,239.45472 264.67968,239.45472 Z M145.60128,239.45472 C151.195725,239.45472 155.858037,240.905248 159.489107,243.663188 L160.251373,244.274134 L160.66176,244.63872 L160.66176,240.96 L178.70976,240.96 L178.70976,296.64 L160.66176,296.64 L160.66176,292.95744 L160.251373,293.325866 C157.016932,296.059564 152.887204,297.674768 147.941541,298.056889 L146.785786,298.12313 L145.60128,298.14528 C130.820462,298.14528 118.944,285.173583 118.944,268.8 C118.944,252.426417 130.820462,239.45472 145.60128,239.45472 Z M39.0749755,219.456 L51.3792,269.2992 L65.1170413,219.456 L80.5571987,219.456 L94.2912,269.2992 L106.599265,219.456 L126.674906,219.456 L105.394175,296.64 L84.363487,296.64 L72.83712,254.87232 L61.310753,296.64 L40.2800652,296.64 L18.9993338,219.456 L39.0749755,219.456 Z M198.847071,240.96 L209.33376,272.92416 L219.820449,240.96 L239.742965,240.96 L219.141365,296.64 L199.526155,296.64 L178.924555,240.96 L198.847071,240.96 Z M148.82688,256.64256 C141.776913,256.64256 136.992,261.427473 136.992,268.8 C136.992,276.172527 141.776913,280.95744 148.82688,280.95744 C155.876847,280.95744 160.66176,276.172527 160.66176,268.8 C160.66176,261.427473 155.876847,256.64256 148.82688,256.64256 Z M264.57216,255.67488 C259.433416,255.67488 255.899222,257.891156 254.239672,262.076304 L254.17728,262.24896 L274.64064,262.24896 L274.540029,261.979184 C272.911008,257.995395 269.597698,255.913257 265.334247,255.694204 L264.57216,255.67488 Z" id="Combined-Shape" fill="#00A2FF" fill-rule="nonzero"></path>
                    </g>
                </g>
            </g>
        </g>
    </g>
</svg>